<svg xmlns="http://www.w3.org/2000/svg" viewBox="70 95 860 815" fill="none" role="img" aria-labelledby="title description"><title id="title">Timber roof framing</title><desc id="description">A separated layer of the original conceptual roof illustration. Educational illustration, not an installation drawing.</desc><defs><filter id="ground-shadow" x="-30%" y="-100%" width="160%" height="300%"><feGaussianBlur stdDeviation="15" /></filter></defs><g id="structure"><polygon points="494.76,530.03 142.90,737.29 142.90,760.29 494.76,553.03" fill="#a27451" stroke="#69513e" stroke-width="0.6" /><polygon points="142.90,737.29 160.72,743.41 160.72,766.41 142.90,760.29" fill="#7f5d44" stroke="#604b39" stroke-width="0.6" /><polygon points="512.58,536.15 160.72,743.41 160.72,766.41 512.58,559.15" fill="#b5855c" stroke="#7d5e42" stroke-width="0.6" /><polygon points="494.76,530.03 142.90,737.29 160.72,743.41 512.58,536.15" fill="#d1aa7a" stroke="#8f6e4e" stroke-width="0.65" /><polyline points="506.34,533.73 154.48,740.99" fill="none" stroke="#96714d" stroke-width="0.52" stroke-linecap="round" stroke-linejoin="round" opacity=".65" /><polyline points="502.96,532.57 151.10,739.83" fill="none" stroke="#96714d" stroke-width="0.52" stroke-linecap="round" stroke-linejoin="round" opacity=".65" /><polyline points="501.00,531.90 149.14,739.16" fill="none" stroke="#96714d" stroke-width="0.52" stroke-linecap="round" stroke-linejoin="round" opacity=".65" /><polygon points="839.28,648.35 487.42,855.61 487.42,878.61 839.28,671.35" fill="#a27451" stroke="#69513e" stroke-width="0.6" /><polygon points="487.42,855.61 505.24,861.73 505.24,884.73 487.42,878.61" fill="#7f5d44" stroke="#604b39" stroke-width="0.6" /><polygon points="857.10,654.47 505.24,861.73 505.24,884.73 857.10,677.47" fill="#b5855c" stroke="#7d5e42" stroke-width="0.6" /><polygon points="839.28,648.35 487.42,855.61 505.24,861.73 857.10,654.47" fill="#d1aa7a" stroke="#8f6e4e" stroke-width="0.65" /><polyline points="850.86,652.05 499.00,859.31" fill="none" stroke="#96714d" stroke-width="0.52" stroke-linecap="round" stroke-linejoin="round" opacity=".65" /><polyline points="847.48,650.89 495.62,858.15" fill="none" stroke="#96714d" stroke-width="0.52" stroke-linecap="round" stroke-linejoin="round" opacity=".65" /><polyline points="845.52,650.22 493.66,857.48" fill="none" stroke="#96714d" stroke-width="0.52" stroke-linecap="round" stroke-linejoin="round" opacity=".65" /><polygon points="488.86,537.22 829.42,654.18 829.42,670.74 488.86,553.78" fill="#a27451" stroke="#69513e" stroke-width="0.6" /><polygon points="829.42,654.18 838.18,649.02 838.18,665.58 829.42,670.74" fill="#7f5d44" stroke="#604b39" stroke-width="0.6" /><polygon points="497.62,532.06 838.18,649.02 838.18,665.58 497.62,548.62" fill="#b5855c" stroke="#7d5e42" stroke-width="0.6" /><polygon points="488.86,537.22 829.42,654.18 838.18,649.02 497.62,532.06" fill="#d1aa7a" stroke="#8f6e4e" stroke-width="0.65" /><polyline points="494.55,533.59 835.11,650.55" fill="none" stroke="#96714d" stroke-width="0.52" stroke-linecap="round" stroke-linejoin="round" opacity=".65" /><polyline points="492.89,534.57 833.45,651.53" fill="none" stroke="#96714d" stroke-width="0.52" stroke-linecap="round" stroke-linejoin="round" opacity=".65" /><polyline points="491.93,535.14 832.49,652.10" fill="none" stroke="#96714d" stroke-width="0.52" stroke-linecap="round" stroke-linejoin="round" opacity=".65" /><polygon points="484.17,517.89 658.41,467.33 658.41,483.89 484.17,534.45" fill="#a27451" stroke="#69513e" stroke-width="0.6" /><polygon points="658.41,467.33 668.63,461.31 668.63,477.87 658.41,483.89" fill="#7f5d44" stroke="#604b39" stroke-width="0.6" /><polygon points="494.39,511.87 668.63,461.31 668.63,477.87 494.39,528.43" fill="#b5855c" stroke="#7d5e42" stroke-width="0.6" /><polygon points="484.17,517.89 658.41,467.33 668.63,461.31 494.39,511.87" fill="#d1aa7a" stroke="#8f6e4e" stroke-width="0.65" /><polyline points="490.81,513.70 665.05,463.14" fill="none" stroke="#96714d" stroke-width="0.52" stroke-linecap="round" stroke-linejoin="round" opacity=".65" /><polyline points="488.87,514.84 663.11,464.28" fill="none" stroke="#96714d" stroke-width="0.52" stroke-linecap="round" stroke-linejoin="round" opacity=".65" /><polyline points="487.75,515.51 661.99,464.95" fill="none" stroke="#96714d" stroke-width="0.52" stroke-linecap="round" stroke-linejoin="round" opacity=".65" /><polygon points="658.41,467.33 832.65,637.57 832.65,654.13 658.41,483.89" fill="#a27451" stroke="#69513e" stroke-width="0.6" /><polygon points="832.65,637.57 842.87,631.55 842.87,648.11 832.65,654.13" fill="#7f5d44" stroke="#604b39" stroke-width="0.6" /><polygon points="668.63,461.31 842.87,631.55 842.87,648.11 668.63,477.87" fill="#b5855c" stroke="#7d5e42" stroke-width="0.6" /><polygon points="658.41,467.33 832.65,637.57 842.87,631.55 668.63,461.31" fill="#d1aa7a" stroke="#8f6e4e" stroke-width="0.65" /><polyline points="665.05,463.14 839.29,633.38" fill="none" stroke="#96714d" stroke-width="0.52" stroke-linecap="round" stroke-linejoin="round" opacity=".65" /><polyline points="663.11,464.28 837.35,634.52" fill="none" stroke="#96714d" stroke-width="0.52" stroke-linecap="round" stroke-linejoin="round" opacity=".65" /><polyline points="661.99,464.95 836.23,635.19" fill="none" stroke="#96714d" stroke-width="0.52" stroke-linecap="round" stroke-linejoin="round" opacity=".65" /><polygon points="667.97,489.77 667.97,592.81 667.97,592.81 667.97,489.77" fill="#a27451" stroke="#69513e" stroke-width="0.6" /><polygon points="667.97,592.81 659.07,589.75 659.07,589.75 667.97,592.81" fill="#7f5d44" stroke="#604b39" stroke-width="0.6" /><polygon points="659.07,486.71 659.07,589.75 659.07,589.75 659.07,486.71" fill="#b5855c" stroke="#7d5e42" stroke-width="0.6" /><polygon points="667.97,489.77 667.97,592.81 659.07,589.75 659.07,486.71" fill="#d1aa7a" stroke="#8f6e4e" stroke-width="0.65" /><polyline points="662.18,487.50 662.18,590.54" fill="none" stroke="#96714d" stroke-width="0.52" stroke-linecap="round" stroke-linejoin="round" opacity=".65" /><polyline points="663.88,488.09 663.88,591.13" fill="none" stroke="#96714d" stroke-width="0.52" stroke-linecap="round" stroke-linejoin="round" opacity=".65" /><polyline points="664.86,488.42 664.86,591.46" fill="none" stroke="#96714d" stroke-width="0.52" stroke-linecap="round" stroke-linejoin="round" opacity=".65" /><polygon points="500.07,501.18 517.89,507.30 506.21,525.22 488.39,519.10" fill="#858781" stroke="#565b57" stroke-width="0.4" /><circle cx="499.91" cy="509.57" r="0.95" fill="#333b36" /><circle cx="507.83" cy="512.29" r="0.95" fill="#333b36" /><polygon points="660.45,467.02 678.27,473.14 666.59,491.06 648.77,484.94" fill="#858781" stroke="#565b57" stroke-width="0.4" /><circle cx="660.29" cy="475.41" r="0.95" fill="#333b36" /><circle cx="668.21" cy="478.13" r="0.95" fill="#333b36" /><polygon points="820.83,611.34 838.65,617.46 826.97,635.38 809.15,629.26" fill="#858781" stroke="#565b57" stroke-width="0.4" /><circle cx="820.67" cy="619.73" r="0.95" fill="#333b36" /><circle cx="828.59" cy="622.45" r="0.95" fill="#333b36" /><polygon points="447.98,561.30 788.54,678.26 788.54,694.82 447.98,577.86" fill="#976846" stroke="#69513e" stroke-width="0.6" /><polygon points="788.54,678.26 797.30,673.10 797.30,689.66 788.54,694.82" fill="#7f5d44" stroke="#604b39" stroke-width="0.6" /><polygon points="456.74,556.14 797.30,673.10 797.30,689.66 456.74,572.70" fill="#b5855c" stroke="#7d5e42" stroke-width="0.6" /><polygon points="447.98,561.30 788.54,678.26 797.30,673.10 456.74,556.14" fill="#d1aa7a" stroke="#8f6e4e" stroke-width="0.65" /><polyline points="453.67,557.67 794.23,674.63" fill="none" stroke="#96714d" stroke-width="0.52" stroke-linecap="round" stroke-linejoin="round" opacity=".65" /><polyline points="452.01,558.65 792.57,675.61" fill="none" stroke="#96714d" stroke-width="0.52" stroke-linecap="round" stroke-linejoin="round" opacity=".65" /><polyline points="451.05,559.22 791.61,676.18" fill="none" stroke="#96714d" stroke-width="0.52" stroke-linecap="round" stroke-linejoin="round" opacity=".65" /><polygon points="443.29,541.97 617.53,491.41 617.53,507.97 443.29,558.53" fill="#976846" stroke="#69513e" stroke-width="0.6" /><polygon points="617.53,491.41 627.75,485.39 627.75,501.95 617.53,507.97" fill="#7f5d44" stroke="#604b39" stroke-width="0.6" /><polygon points="453.51,535.95 627.75,485.39 627.75,501.95 453.51,552.51" fill="#b5855c" stroke="#7d5e42" stroke-width="0.6" /><polygon points="443.29,541.97 617.53,491.41 627.75,485.39 453.51,535.95" fill="#d1aa7a" stroke="#8f6e4e" stroke-width="0.65" /><polyline points="449.93,537.78 624.17,487.22" fill="none" stroke="#96714d" stroke-width="0.52" stroke-linecap="round" stroke-linejoin="round" opacity=".65" /><polyline points="447.99,538.92 622.23,488.36" fill="none" stroke="#96714d" stroke-width="0.52" stroke-linecap="round" stroke-linejoin="round" opacity=".65" /><polyline points="446.87,539.59 621.11,489.03" fill="none" stroke="#96714d" stroke-width="0.52" stroke-linecap="round" stroke-linejoin="round" opacity=".65" /><polygon points="617.53,491.41 791.77,661.65 791.77,678.21 617.53,507.97" fill="#976846" stroke="#69513e" stroke-width="0.6" /><polygon points="791.77,661.65 801.99,655.63 801.99,672.19 791.77,678.21" fill="#7f5d44" stroke="#604b39" stroke-width="0.6" /><polygon points="627.75,485.39 801.99,655.63 801.99,672.19 627.75,501.95" fill="#b5855c" stroke="#7d5e42" stroke-width="0.6" /><polygon points="617.53,491.41 791.77,661.65 801.99,655.63 627.75,485.39" fill="#d1aa7a" stroke="#8f6e4e" stroke-width="0.65" /><polyline points="624.17,487.22 798.41,657.46" fill="none" stroke="#96714d" stroke-width="0.52" stroke-linecap="round" stroke-linejoin="round" opacity=".65" /><polyline points="622.23,488.36 796.47,658.60" fill="none" stroke="#96714d" stroke-width="0.52" stroke-linecap="round" stroke-linejoin="round" opacity=".65" /><polyline points="621.11,489.03 795.35,659.27" fill="none" stroke="#96714d" stroke-width="0.52" stroke-linecap="round" stroke-linejoin="round" opacity=".65" /><polygon points="627.10,513.85 627.10,616.89 627.10,616.89 627.10,513.85" fill="#976846" stroke="#69513e" stroke-width="0.6" /><polygon points="627.10,616.89 618.19,613.83 618.19,613.83 627.10,616.89" fill="#7f5d44" stroke="#604b39" stroke-width="0.6" /><polygon points="618.19,510.79 618.19,613.83 618.19,613.83 618.19,510.79" fill="#b5855c" stroke="#7d5e42" stroke-width="0.6" /><polygon points="627.10,513.85 627.10,616.89 618.19,613.83 618.19,510.79" fill="#d1aa7a" stroke="#8f6e4e" stroke-width="0.65" /><polyline points="621.30,511.59 621.30,614.62" fill="none" stroke="#96714d" stroke-width="0.52" stroke-linecap="round" stroke-linejoin="round" opacity=".65" /><polyline points="623.00,512.17 623.00,615.21" fill="none" stroke="#96714d" stroke-width="0.52" stroke-linecap="round" stroke-linejoin="round" opacity=".65" /><polyline points="623.98,512.50 623.98,615.54" fill="none" stroke="#96714d" stroke-width="0.52" stroke-linecap="round" stroke-linejoin="round" opacity=".65" /><polygon points="459.19,525.26 477.01,531.38 465.33,549.30 447.51,543.18" fill="#858781" stroke="#565b57" stroke-width="0.4" /><circle cx="459.03" cy="533.65" r="0.95" fill="#333b36" /><circle cx="466.95" cy="536.37" r="0.95" fill="#333b36" /><polygon points="619.57,491.10 637.39,497.22 625.71,515.14 607.89,509.02" fill="#858781" stroke="#565b57" stroke-width="0.4" /><circle cx="619.41" cy="499.49" r="0.95" fill="#333b36" /><circle cx="627.33" cy="502.21" r="0.95" fill="#333b36" /><polygon points="779.95,635.42 797.77,641.54 786.09,659.46 768.27,653.34" fill="#858781" stroke="#565b57" stroke-width="0.4" /><circle cx="779.79" cy="643.81" r="0.95" fill="#333b36" /><circle cx="787.71" cy="646.53" r="0.95" fill="#333b36" /><polygon points="407.10,585.38 747.66,702.34 747.66,718.90 407.10,601.94" fill="#a27451" stroke="#69513e" stroke-width="0.6" /><polygon points="747.66,702.34 756.42,697.18 756.42,713.74 747.66,718.90" fill="#7f5d44" stroke="#604b39" stroke-width="0.6" /><polygon points="415.86,580.22 756.42,697.18 756.42,713.74 415.86,596.78" fill="#b5855c" stroke="#7d5e42" stroke-width="0.6" /><polygon points="407.10,585.38 747.66,702.34 756.42,697.18 415.86,580.22" fill="#d1aa7a" stroke="#8f6e4e" stroke-width="0.65" /><polyline points="412.79,581.75 753.35,698.71" fill="none" stroke="#96714d" stroke-width="0.52" stroke-linecap="round" stroke-linejoin="round" opacity=".65" /><polyline points="411.13,582.73 751.69,699.69" fill="none" stroke="#96714d" stroke-width="0.52" stroke-linecap="round" stroke-linejoin="round" opacity=".65" /><polyline points="410.17,583.30 750.73,700.26" fill="none" stroke="#96714d" stroke-width="0.52" stroke-linecap="round" stroke-linejoin="round" opacity=".65" /><polygon points="402.41,566.05 576.65,515.49 576.65,532.05 402.41,582.61" fill="#a27451" stroke="#69513e" stroke-width="0.6" /><polygon points="576.65,515.49 586.87,509.47 586.87,526.03 576.65,532.05" fill="#7f5d44" stroke="#604b39" stroke-width="0.6" /><polygon points="412.63,560.03 586.87,509.47 586.87,526.03 412.63,576.59" fill="#b5855c" stroke="#7d5e42" stroke-width="0.6" /><polygon points="402.41,566.05 576.65,515.49 586.87,509.47 412.63,560.03" fill="#d1aa7a" stroke="#8f6e4e" stroke-width="0.65" /><polyline points="409.05,561.86 583.29,511.30" fill="none" stroke="#96714d" stroke-width="0.52" stroke-linecap="round" stroke-linejoin="round" opacity=".65" /><polyline points="407.11,563.00 581.35,512.44" fill="none" stroke="#96714d" stroke-width="0.52" stroke-linecap="round" stroke-linejoin="round" opacity=".65" /><polyline points="405.99,563.67 580.23,513.11" fill="none" stroke="#96714d" stroke-width="0.52" stroke-linecap="round" stroke-linejoin="round" opacity=".65" /><polygon points="576.65,515.49 750.89,685.73 750.89,702.29 576.65,532.05" fill="#a27451" stroke="#69513e" stroke-width="0.6" /><polygon points="750.89,685.73 761.11,679.71 761.11,696.27 750.89,702.29" fill="#7f5d44" stroke="#604b39" stroke-width="0.6" /><polygon points="586.87,509.47 761.11,679.71 761.11,696.27 586.87,526.03" fill="#b5855c" stroke="#7d5e42" stroke-width="0.6" /><polygon points="576.65,515.49 750.89,685.73 761.11,679.71 586.87,509.47" fill="#d1aa7a" stroke="#8f6e4e" stroke-width="0.65" /><polyline points="583.29,511.30 757.53,681.54" fill="none" stroke="#96714d" stroke-width="0.52" stroke-linecap="round" stroke-linejoin="round" opacity=".65" /><polyline points="581.35,512.44 755.59,682.68" fill="none" stroke="#96714d" stroke-width="0.52" stroke-linecap="round" stroke-linejoin="round" opacity=".65" /><polyline points="580.23,513.11 754.47,683.35" fill="none" stroke="#96714d" stroke-width="0.52" stroke-linecap="round" stroke-linejoin="round" opacity=".65" /><polygon points="586.21,537.93 586.21,640.97 586.21,640.97 586.21,537.93" fill="#a27451" stroke="#69513e" stroke-width="0.6" /><polygon points="586.21,640.97 577.31,637.91 577.31,637.91 586.21,640.97" fill="#7f5d44" stroke="#604b39" stroke-width="0.6" /><polygon points="577.31,534.87 577.31,637.91 577.31,637.91 577.31,534.87" fill="#b5855c" stroke="#7d5e42" stroke-width="0.6" /><polygon points="586.21,537.93 586.21,640.97 577.31,637.91 577.31,534.87" fill="#d1aa7a" stroke="#8f6e4e" stroke-width="0.65" /><polyline points="580.42,535.67 580.42,638.71" fill="none" stroke="#96714d" stroke-width="0.52" stroke-linecap="round" stroke-linejoin="round" opacity=".65" /><polyline points="582.12,536.25 582.12,639.29" fill="none" stroke="#96714d" stroke-width="0.52" stroke-linecap="round" stroke-linejoin="round" opacity=".65" /><polyline points="583.10,536.58 583.10,639.62" fill="none" stroke="#96714d" stroke-width="0.52" stroke-linecap="round" stroke-linejoin="round" opacity=".65" /><polygon points="418.31,549.34 436.13,555.46 424.45,573.38 406.63,567.26" fill="#858781" stroke="#565b57" stroke-width="0.4" /><circle cx="418.15" cy="557.73" r="0.95" fill="#333b36" /><circle cx="426.07" cy="560.45" r="0.95" fill="#333b36" /><polygon points="578.69,515.18 596.51,521.30 584.83,539.22 567.01,533.10" fill="#858781" stroke="#565b57" stroke-width="0.4" /><circle cx="578.53" cy="523.57" r="0.95" fill="#333b36" /><circle cx="586.45" cy="526.29" r="0.95" fill="#333b36" /><polygon points="739.07,659.50 756.89,665.62 745.21,683.54 727.39,677.42" fill="#858781" stroke="#565b57" stroke-width="0.4" /><circle cx="738.91" cy="667.89" r="0.95" fill="#333b36" /><circle cx="746.83" cy="670.61" r="0.95" fill="#333b36" /><polygon points="366.22,609.46 706.78,726.42 706.78,742.98 366.22,626.02" fill="#976846" stroke="#69513e" stroke-width="0.6" /><polygon points="706.78,726.42 715.54,721.26 715.54,737.82 706.78,742.98" fill="#7f5d44" stroke="#604b39" stroke-width="0.6" /><polygon points="374.98,604.30 715.54,721.26 715.54,737.82 374.98,620.86" fill="#b5855c" stroke="#7d5e42" stroke-width="0.6" /><polygon points="366.22,609.46 706.78,726.42 715.54,721.26 374.98,604.30" fill="#d1aa7a" stroke="#8f6e4e" stroke-width="0.65" /><polyline points="371.91,605.83 712.47,722.79" fill="none" stroke="#96714d" stroke-width="0.52" stroke-linecap="round" stroke-linejoin="round" opacity=".65" /><polyline points="370.25,606.81 710.81,723.77" fill="none" stroke="#96714d" stroke-width="0.52" stroke-linecap="round" stroke-linejoin="round" opacity=".65" /><polyline points="369.29,607.38 709.85,724.34" fill="none" stroke="#96714d" stroke-width="0.52" stroke-linecap="round" stroke-linejoin="round" opacity=".65" /><polygon points="361.53,590.13 535.77,539.57 535.77,556.13 361.53,606.69" fill="#976846" stroke="#69513e" stroke-width="0.6" /><polygon points="535.77,539.57 545.99,533.55 545.99,550.11 535.77,556.13" fill="#7f5d44" stroke="#604b39" stroke-width="0.6" /><polygon points="371.75,584.11 545.99,533.55 545.99,550.11 371.75,600.67" fill="#b5855c" stroke="#7d5e42" stroke-width="0.6" /><polygon points="361.53,590.13 535.77,539.57 545.99,533.55 371.75,584.11" fill="#d1aa7a" stroke="#8f6e4e" stroke-width="0.65" /><polyline points="368.17,585.94 542.41,535.38" fill="none" stroke="#96714d" stroke-width="0.52" stroke-linecap="round" stroke-linejoin="round" opacity=".65" /><polyline points="366.23,587.08 540.47,536.52" fill="none" stroke="#96714d" stroke-width="0.52" stroke-linecap="round" stroke-linejoin="round" opacity=".65" /><polyline points="365.11,587.75 539.35,537.19" fill="none" stroke="#96714d" stroke-width="0.52" stroke-linecap="round" stroke-linejoin="round" opacity=".65" /><polygon points="535.77,539.57 710.01,709.81 710.01,726.37 535.77,556.13" fill="#976846" stroke="#69513e" stroke-width="0.6" /><polygon points="710.01,709.81 720.23,703.79 720.23,720.35 710.01,726.37" fill="#7f5d44" stroke="#604b39" stroke-width="0.6" /><polygon points="545.99,533.55 720.23,703.79 720.23,720.35 545.99,550.11" fill="#b5855c" stroke="#7d5e42" stroke-width="0.6" /><polygon points="535.77,539.57 710.01,709.81 720.23,703.79 545.99,533.55" fill="#d1aa7a" stroke="#8f6e4e" stroke-width="0.65" /><polyline points="542.41,535.38 716.65,705.62" fill="none" stroke="#96714d" stroke-width="0.52" stroke-linecap="round" stroke-linejoin="round" opacity=".65" /><polyline points="540.47,536.52 714.71,706.76" fill="none" stroke="#96714d" stroke-width="0.52" stroke-linecap="round" stroke-linejoin="round" opacity=".65" /><polyline points="539.35,537.19 713.59,707.43" fill="none" stroke="#96714d" stroke-width="0.52" stroke-linecap="round" stroke-linejoin="round" opacity=".65" /><polygon points="545.34,562.01 545.34,665.05 545.34,665.05 545.34,562.01" fill="#976846" stroke="#69513e" stroke-width="0.6" /><polygon points="545.34,665.05 536.42,661.99 536.42,661.99 545.34,665.05" fill="#7f5d44" stroke="#604b39" stroke-width="0.6" /><polygon points="536.42,558.95 536.42,661.99 536.42,661.99 536.42,558.95" fill="#b5855c" stroke="#7d5e42" stroke-width="0.6" /><polygon points="545.34,562.01 545.34,665.05 536.42,661.99 536.42,558.95" fill="#d1aa7a" stroke="#8f6e4e" stroke-width="0.65" /><polyline points="539.54,559.75 539.54,662.78" fill="none" stroke="#96714d" stroke-width="0.52" stroke-linecap="round" stroke-linejoin="round" opacity=".65" /><polyline points="541.24,560.33 541.24,663.37" fill="none" stroke="#96714d" stroke-width="0.52" stroke-linecap="round" stroke-linejoin="round" opacity=".65" /><polyline points="542.22,560.66 542.22,663.70" fill="none" stroke="#96714d" stroke-width="0.52" stroke-linecap="round" stroke-linejoin="round" opacity=".65" /><polygon points="377.43,573.42 395.25,579.54 383.57,597.46 365.75,591.34" fill="#858781" stroke="#565b57" stroke-width="0.4" /><circle cx="377.27" cy="581.81" r="0.95" fill="#333b36" /><circle cx="385.19" cy="584.53" r="0.95" fill="#333b36" /><polygon points="537.81,539.26 555.63,545.38 543.95,563.30 526.13,557.18" fill="#858781" stroke="#565b57" stroke-width="0.4" /><circle cx="537.65" cy="547.65" r="0.95" fill="#333b36" /><circle cx="545.57" cy="550.37" r="0.95" fill="#333b36" /><polygon points="698.19,683.58 716.01,689.70 704.33,707.62 686.51,701.50" fill="#858781" stroke="#565b57" stroke-width="0.4" /><circle cx="698.03" cy="691.97" r="0.95" fill="#333b36" /><circle cx="705.95" cy="694.69" r="0.95" fill="#333b36" /><polygon points="325.34,633.54 665.90,750.50 665.90,767.06 325.34,650.10" fill="#a27451" stroke="#69513e" stroke-width="0.6" /><polygon points="665.90,750.50 674.66,745.34 674.66,761.90 665.90,767.06" fill="#7f5d44" stroke="#604b39" stroke-width="0.6" /><polygon points="334.10,628.38 674.66,745.34 674.66,761.90 334.10,644.94" fill="#b5855c" stroke="#7d5e42" stroke-width="0.6" /><polygon points="325.34,633.54 665.90,750.50 674.66,745.34 334.10,628.38" fill="#d1aa7a" stroke="#8f6e4e" stroke-width="0.65" /><polyline points="331.03,629.91 671.59,746.87" fill="none" stroke="#96714d" stroke-width="0.52" stroke-linecap="round" stroke-linejoin="round" opacity=".65" /><polyline points="329.37,630.89 669.93,747.85" fill="none" stroke="#96714d" stroke-width="0.52" stroke-linecap="round" stroke-linejoin="round" opacity=".65" /><polyline points="328.41,631.46 668.97,748.42" fill="none" stroke="#96714d" stroke-width="0.52" stroke-linecap="round" stroke-linejoin="round" opacity=".65" /><polygon points="320.65,614.21 494.89,563.65 494.89,580.21 320.65,630.77" fill="#a27451" stroke="#69513e" stroke-width="0.6" /><polygon points="494.89,563.65 505.11,557.63 505.11,574.19 494.89,580.21" fill="#7f5d44" stroke="#604b39" stroke-width="0.6" /><polygon points="330.87,608.19 505.11,557.63 505.11,574.19 330.87,624.75" fill="#b5855c" stroke="#7d5e42" stroke-width="0.6" /><polygon points="320.65,614.21 494.89,563.65 505.11,557.63 330.87,608.19" fill="#d1aa7a" stroke="#8f6e4e" stroke-width="0.65" /><polyline points="327.29,610.02 501.53,559.46" fill="none" stroke="#96714d" stroke-width="0.52" stroke-linecap="round" stroke-linejoin="round" opacity=".65" /><polyline points="325.35,611.16 499.59,560.60" fill="none" stroke="#96714d" stroke-width="0.52" stroke-linecap="round" stroke-linejoin="round" opacity=".65" /><polyline points="324.23,611.83 498.47,561.27" fill="none" stroke="#96714d" stroke-width="0.52" stroke-linecap="round" stroke-linejoin="round" opacity=".65" /><polygon points="494.89,563.65 669.13,733.89 669.13,750.45 494.89,580.21" fill="#a27451" stroke="#69513e" stroke-width="0.6" /><polygon points="669.13,733.89 679.35,727.87 679.35,744.43 669.13,750.45" fill="#7f5d44" stroke="#604b39" stroke-width="0.6" /><polygon points="505.11,557.63 679.35,727.87 679.35,744.43 505.11,574.19" fill="#b5855c" stroke="#7d5e42" stroke-width="0.6" /><polygon points="494.89,563.65 669.13,733.89 679.35,727.87 505.11,557.63" fill="#d1aa7a" stroke="#8f6e4e" stroke-width="0.65" /><polyline points="501.53,559.46 675.77,729.70" fill="none" stroke="#96714d" stroke-width="0.52" stroke-linecap="round" stroke-linejoin="round" opacity=".65" /><polyline points="499.59,560.60 673.83,730.84" fill="none" stroke="#96714d" stroke-width="0.52" stroke-linecap="round" stroke-linejoin="round" opacity=".65" /><polyline points="498.47,561.27 672.71,731.51" fill="none" stroke="#96714d" stroke-width="0.52" stroke-linecap="round" stroke-linejoin="round" opacity=".65" /><polygon points="504.45,586.09 504.45,689.13 504.45,689.13 504.45,586.09" fill="#a27451" stroke="#69513e" stroke-width="0.6" /><polygon points="504.45,689.13 495.55,686.07 495.55,686.07 504.45,689.13" fill="#7f5d44" stroke="#604b39" stroke-width="0.6" /><polygon points="495.55,583.03 495.55,686.07 495.55,686.07 495.55,583.03" fill="#b5855c" stroke="#7d5e42" stroke-width="0.6" /><polygon points="504.45,586.09 504.45,689.13 495.55,686.07 495.55,583.03" fill="#d1aa7a" stroke="#8f6e4e" stroke-width="0.65" /><polyline points="498.66,583.83 498.66,686.87" fill="none" stroke="#96714d" stroke-width="0.52" stroke-linecap="round" stroke-linejoin="round" opacity=".65" /><polyline points="500.36,584.41 500.36,687.45" fill="none" stroke="#96714d" stroke-width="0.52" stroke-linecap="round" stroke-linejoin="round" opacity=".65" /><polyline points="501.34,584.74 501.34,687.78" fill="none" stroke="#96714d" stroke-width="0.52" stroke-linecap="round" stroke-linejoin="round" opacity=".65" /><polygon points="336.55,597.50 354.37,603.62 342.69,621.54 324.87,615.42" fill="#858781" stroke="#565b57" stroke-width="0.4" /><circle cx="336.39" cy="605.89" r="0.95" fill="#333b36" /><circle cx="344.31" cy="608.61" r="0.95" fill="#333b36" /><polygon points="496.93,563.34 514.75,569.46 503.07,587.38 485.25,581.26" fill="#858781" stroke="#565b57" stroke-width="0.4" /><circle cx="496.77" cy="571.73" r="0.95" fill="#333b36" /><circle cx="504.69" cy="574.45" r="0.95" fill="#333b36" /><polygon points="657.31,707.66 675.13,713.78 663.45,731.70 645.63,725.58" fill="#858781" stroke="#565b57" stroke-width="0.4" /><circle cx="657.15" cy="716.05" r="0.95" fill="#333b36" /><circle cx="665.07" cy="718.77" r="0.95" fill="#333b36" /><polygon points="284.46,657.62 625.02,774.58 625.02,791.14 284.46,674.18" fill="#976846" stroke="#69513e" stroke-width="0.6" /><polygon points="625.02,774.58 633.78,769.42 633.78,785.98 625.02,791.14" fill="#7f5d44" stroke="#604b39" stroke-width="0.6" /><polygon points="293.22,652.46 633.78,769.42 633.78,785.98 293.22,669.02" fill="#b5855c" stroke="#7d5e42" stroke-width="0.6" /><polygon points="284.46,657.62 625.02,774.58 633.78,769.42 293.22,652.46" fill="#d1aa7a" stroke="#8f6e4e" stroke-width="0.65" /><polyline points="290.15,653.99 630.71,770.95" fill="none" stroke="#96714d" stroke-width="0.52" stroke-linecap="round" stroke-linejoin="round" opacity=".65" /><polyline points="288.49,654.97 629.05,771.93" fill="none" stroke="#96714d" stroke-width="0.52" stroke-linecap="round" stroke-linejoin="round" opacity=".65" /><polyline points="287.53,655.54 628.09,772.50" fill="none" stroke="#96714d" stroke-width="0.52" stroke-linecap="round" stroke-linejoin="round" opacity=".65" /><polygon points="279.77,638.29 454.01,587.73 454.01,604.29 279.77,654.85" fill="#976846" stroke="#69513e" stroke-width="0.6" /><polygon points="454.01,587.73 464.23,581.71 464.23,598.27 454.01,604.29" fill="#7f5d44" stroke="#604b39" stroke-width="0.6" /><polygon points="289.99,632.27 464.23,581.71 464.23,598.27 289.99,648.83" fill="#b5855c" stroke="#7d5e42" stroke-width="0.6" /><polygon points="279.77,638.29 454.01,587.73 464.23,581.71 289.99,632.27" fill="#d1aa7a" stroke="#8f6e4e" stroke-width="0.65" /><polyline points="286.41,634.10 460.65,583.54" fill="none" stroke="#96714d" stroke-width="0.52" stroke-linecap="round" stroke-linejoin="round" opacity=".65" /><polyline points="284.47,635.24 458.71,584.68" fill="none" stroke="#96714d" stroke-width="0.52" stroke-linecap="round" stroke-linejoin="round" opacity=".65" /><polyline points="283.35,635.91 457.59,585.35" fill="none" stroke="#96714d" stroke-width="0.52" stroke-linecap="round" stroke-linejoin="round" opacity=".65" /><polygon points="454.01,587.73 628.25,757.97 628.25,774.53 454.01,604.29" fill="#976846" stroke="#69513e" stroke-width="0.6" /><polygon points="628.25,757.97 638.47,751.95 638.47,768.51 628.25,774.53" fill="#7f5d44" stroke="#604b39" stroke-width="0.6" /><polygon points="464.23,581.71 638.47,751.95 638.47,768.51 464.23,598.27" fill="#b5855c" stroke="#7d5e42" stroke-width="0.6" /><polygon points="454.01,587.73 628.25,757.97 638.47,751.95 464.23,581.71" fill="#d1aa7a" stroke="#8f6e4e" stroke-width="0.65" /><polyline points="460.65,583.54 634.89,753.78" fill="none" stroke="#96714d" stroke-width="0.52" stroke-linecap="round" stroke-linejoin="round" opacity=".65" /><polyline points="458.71,584.68 632.95,754.92" fill="none" stroke="#96714d" stroke-width="0.52" stroke-linecap="round" stroke-linejoin="round" opacity=".65" /><polyline points="457.59,585.35 631.83,755.59" fill="none" stroke="#96714d" stroke-width="0.52" stroke-linecap="round" stroke-linejoin="round" opacity=".65" /><polygon points="463.57,610.17 463.57,713.21 463.57,713.21 463.57,610.17" fill="#976846" stroke="#69513e" stroke-width="0.6" /><polygon points="463.57,713.21 454.67,710.15 454.67,710.15 463.57,713.21" fill="#7f5d44" stroke="#604b39" stroke-width="0.6" /><polygon points="454.67,607.11 454.67,710.15 454.67,710.15 454.67,607.11" fill="#b5855c" stroke="#7d5e42" stroke-width="0.6" /><polygon points="463.57,610.17 463.57,713.21 454.67,710.15 454.67,607.11" fill="#d1aa7a" stroke="#8f6e4e" stroke-width="0.65" /><polyline points="457.78,607.91 457.78,710.95" fill="none" stroke="#96714d" stroke-width="0.52" stroke-linecap="round" stroke-linejoin="round" opacity=".65" /><polyline points="459.48,608.49 459.48,711.53" fill="none" stroke="#96714d" stroke-width="0.52" stroke-linecap="round" stroke-linejoin="round" opacity=".65" /><polyline points="460.46,608.82 460.46,711.86" fill="none" stroke="#96714d" stroke-width="0.52" stroke-linecap="round" stroke-linejoin="round" opacity=".65" /><polygon points="295.67,621.58 313.49,627.70 301.81,645.62 283.99,639.50" fill="#858781" stroke="#565b57" stroke-width="0.4" /><circle cx="295.51" cy="629.97" r="0.95" fill="#333b36" /><circle cx="303.43" cy="632.69" r="0.95" fill="#333b36" /><polygon points="456.05,587.42 473.87,593.54 462.19,611.46 444.37,605.34" fill="#858781" stroke="#565b57" stroke-width="0.4" /><circle cx="455.89" cy="595.81" r="0.95" fill="#333b36" /><circle cx="463.81" cy="598.53" r="0.95" fill="#333b36" /><polygon points="616.43,731.74 634.25,737.86 622.57,755.78 604.75,749.66" fill="#858781" stroke="#565b57" stroke-width="0.4" /><circle cx="616.27" cy="740.13" r="0.95" fill="#333b36" /><circle cx="624.19" cy="742.85" r="0.95" fill="#333b36" /><polygon points="243.58,681.70 584.14,798.66 584.14,815.22 243.58,698.26" fill="#a27451" stroke="#69513e" stroke-width="0.6" /><polygon points="584.14,798.66 592.90,793.50 592.90,810.06 584.14,815.22" fill="#7f5d44" stroke="#604b39" stroke-width="0.6" /><polygon points="252.34,676.54 592.90,793.50 592.90,810.06 252.34,693.10" fill="#b5855c" stroke="#7d5e42" stroke-width="0.6" /><polygon points="243.58,681.70 584.14,798.66 592.90,793.50 252.34,676.54" fill="#d1aa7a" stroke="#8f6e4e" stroke-width="0.65" /><polyline points="249.27,678.07 589.83,795.03" fill="none" stroke="#96714d" stroke-width="0.52" stroke-linecap="round" stroke-linejoin="round" opacity=".65" /><polyline points="247.61,679.05 588.17,796.01" fill="none" stroke="#96714d" stroke-width="0.52" stroke-linecap="round" stroke-linejoin="round" opacity=".65" /><polyline points="246.65,679.62 587.21,796.58" fill="none" stroke="#96714d" stroke-width="0.52" stroke-linecap="round" stroke-linejoin="round" opacity=".65" /><polygon points="238.89,662.37 413.13,611.81 413.13,628.37 238.89,678.93" fill="#a27451" stroke="#69513e" stroke-width="0.6" /><polygon points="413.13,611.81 423.35,605.79 423.35,622.35 413.13,628.37" fill="#7f5d44" stroke="#604b39" stroke-width="0.6" /><polygon points="249.11,656.35 423.35,605.79 423.35,622.35 249.11,672.91" fill="#b5855c" stroke="#7d5e42" stroke-width="0.6" /><polygon points="238.89,662.37 413.13,611.81 423.35,605.79 249.11,656.35" fill="#d1aa7a" stroke="#8f6e4e" stroke-width="0.65" /><polyline points="245.53,658.18 419.77,607.62" fill="none" stroke="#96714d" stroke-width="0.52" stroke-linecap="round" stroke-linejoin="round" opacity=".65" /><polyline points="243.59,659.32 417.83,608.76" fill="none" stroke="#96714d" stroke-width="0.52" stroke-linecap="round" stroke-linejoin="round" opacity=".65" /><polyline points="242.47,659.99 416.71,609.43" fill="none" stroke="#96714d" stroke-width="0.52" stroke-linecap="round" stroke-linejoin="round" opacity=".65" /><polygon points="413.13,611.81 587.37,782.05 587.37,798.61 413.13,628.37" fill="#a27451" stroke="#69513e" stroke-width="0.6" /><polygon points="587.37,782.05 597.59,776.03 597.59,792.59 587.37,798.61" fill="#7f5d44" stroke="#604b39" stroke-width="0.6" /><polygon points="423.35,605.79 597.59,776.03 597.59,792.59 423.35,622.35" fill="#b5855c" stroke="#7d5e42" stroke-width="0.6" /><polygon points="413.13,611.81 587.37,782.05 597.59,776.03 423.35,605.79" fill="#d1aa7a" stroke="#8f6e4e" stroke-width="0.65" /><polyline points="419.77,607.62 594.01,777.86" fill="none" stroke="#96714d" stroke-width="0.52" stroke-linecap="round" stroke-linejoin="round" opacity=".65" /><polyline points="417.83,608.76 592.07,779.00" fill="none" stroke="#96714d" stroke-width="0.52" stroke-linecap="round" stroke-linejoin="round" opacity=".65" /><polyline points="416.71,609.43 590.95,779.67" fill="none" stroke="#96714d" stroke-width="0.52" stroke-linecap="round" stroke-linejoin="round" opacity=".65" /><polygon points="422.69,634.25 422.69,737.29 422.69,737.29 422.69,634.25" fill="#a27451" stroke="#69513e" stroke-width="0.6" /><polygon points="422.69,737.29 413.79,734.23 413.79,734.23 422.69,737.29" fill="#7f5d44" stroke="#604b39" stroke-width="0.6" /><polygon points="413.79,631.19 413.79,734.23 413.79,734.23 413.79,631.19" fill="#b5855c" stroke="#7d5e42" stroke-width="0.6" /><polygon points="422.69,634.25 422.69,737.29 413.79,734.23 413.79,631.19" fill="#d1aa7a" stroke="#8f6e4e" stroke-width="0.65" /><polyline points="416.90,631.99 416.90,735.02" fill="none" stroke="#96714d" stroke-width="0.52" stroke-linecap="round" stroke-linejoin="round" opacity=".65" /><polyline points="418.60,632.57 418.60,735.61" fill="none" stroke="#96714d" stroke-width="0.52" stroke-linecap="round" stroke-linejoin="round" opacity=".65" /><polyline points="419.58,632.90 419.58,735.94" fill="none" stroke="#96714d" stroke-width="0.52" stroke-linecap="round" stroke-linejoin="round" opacity=".65" /><polygon points="254.79,645.66 272.61,651.78 260.93,669.70 243.11,663.58" fill="#858781" stroke="#565b57" stroke-width="0.4" /><circle cx="254.63" cy="654.05" r="0.95" fill="#333b36" /><circle cx="262.55" cy="656.77" r="0.95" fill="#333b36" /><polygon points="415.17,611.50 432.99,617.62 421.31,635.54 403.49,629.42" fill="#858781" stroke="#565b57" stroke-width="0.4" /><circle cx="415.01" cy="619.89" r="0.95" fill="#333b36" /><circle cx="422.93" cy="622.61" r="0.95" fill="#333b36" /><polygon points="575.55,755.82 593.37,761.94 581.69,779.86 563.87,773.74" fill="#858781" stroke="#565b57" stroke-width="0.4" /><circle cx="575.39" cy="764.21" r="0.95" fill="#333b36" /><circle cx="583.31" cy="766.93" r="0.95" fill="#333b36" /><polygon points="202.70,705.78 543.26,822.74 543.26,839.30 202.70,722.34" fill="#976846" stroke="#69513e" stroke-width="0.6" /><polygon points="543.26,822.74 552.02,817.58 552.02,834.14 543.26,839.30" fill="#7f5d44" stroke="#604b39" stroke-width="0.6" /><polygon points="211.46,700.62 552.02,817.58 552.02,834.14 211.46,717.18" fill="#b5855c" stroke="#7d5e42" stroke-width="0.6" /><polygon points="202.70,705.78 543.26,822.74 552.02,817.58 211.46,700.62" fill="#d1aa7a" stroke="#8f6e4e" stroke-width="0.65" /><polyline points="208.39,702.15 548.95,819.11" fill="none" stroke="#96714d" stroke-width="0.52" stroke-linecap="round" stroke-linejoin="round" opacity=".65" /><polyline points="206.73,703.13 547.29,820.09" fill="none" stroke="#96714d" stroke-width="0.52" stroke-linecap="round" stroke-linejoin="round" opacity=".65" /><polyline points="205.77,703.70 546.33,820.66" fill="none" stroke="#96714d" stroke-width="0.52" stroke-linecap="round" stroke-linejoin="round" opacity=".65" /><polygon points="198.01,686.45 372.25,635.89 372.25,652.45 198.01,703.01" fill="#976846" stroke="#69513e" stroke-width="0.6" /><polygon points="372.25,635.89 382.47,629.87 382.47,646.43 372.25,652.45" fill="#7f5d44" stroke="#604b39" stroke-width="0.6" /><polygon points="208.23,680.43 382.47,629.87 382.47,646.43 208.23,696.99" fill="#b5855c" stroke="#7d5e42" stroke-width="0.6" /><polygon points="198.01,686.45 372.25,635.89 382.47,629.87 208.23,680.43" fill="#d1aa7a" stroke="#8f6e4e" stroke-width="0.65" /><polyline points="204.65,682.26 378.89,631.70" fill="none" stroke="#96714d" stroke-width="0.52" stroke-linecap="round" stroke-linejoin="round" opacity=".65" /><polyline points="202.71,683.40 376.95,632.84" fill="none" stroke="#96714d" stroke-width="0.52" stroke-linecap="round" stroke-linejoin="round" opacity=".65" /><polyline points="201.59,684.07 375.83,633.51" fill="none" stroke="#96714d" stroke-width="0.52" stroke-linecap="round" stroke-linejoin="round" opacity=".65" /><polygon points="372.25,635.89 546.49,806.13 546.49,822.69 372.25,652.45" fill="#976846" stroke="#69513e" stroke-width="0.6" /><polygon points="546.49,806.13 556.71,800.11 556.71,816.67 546.49,822.69" fill="#7f5d44" stroke="#604b39" stroke-width="0.6" /><polygon points="382.47,629.87 556.71,800.11 556.71,816.67 382.47,646.43" fill="#b5855c" stroke="#7d5e42" stroke-width="0.6" /><polygon points="372.25,635.89 546.49,806.13 556.71,800.11 382.47,629.87" fill="#d1aa7a" stroke="#8f6e4e" stroke-width="0.65" /><polyline points="378.89,631.70 553.13,801.94" fill="none" stroke="#96714d" stroke-width="0.52" stroke-linecap="round" stroke-linejoin="round" opacity=".65" /><polyline points="376.95,632.84 551.19,803.08" fill="none" stroke="#96714d" stroke-width="0.52" stroke-linecap="round" stroke-linejoin="round" opacity=".65" /><polyline points="375.83,633.51 550.07,803.75" fill="none" stroke="#96714d" stroke-width="0.52" stroke-linecap="round" stroke-linejoin="round" opacity=".65" /><polygon points="381.81,658.33 381.81,761.37 381.81,761.37 381.81,658.33" fill="#976846" stroke="#69513e" stroke-width="0.6" /><polygon points="381.81,761.37 372.91,758.31 372.91,758.31 381.81,761.37" fill="#7f5d44" stroke="#604b39" stroke-width="0.6" /><polygon points="372.91,655.27 372.91,758.31 372.91,758.31 372.91,655.27" fill="#b5855c" stroke="#7d5e42" stroke-width="0.6" /><polygon points="381.81,658.33 381.81,761.37 372.91,758.31 372.91,655.27" fill="#d1aa7a" stroke="#8f6e4e" stroke-width="0.65" /><polyline points="376.02,656.07 376.02,759.11" fill="none" stroke="#96714d" stroke-width="0.52" stroke-linecap="round" stroke-linejoin="round" opacity=".65" /><polyline points="377.72,656.65 377.72,759.69" fill="none" stroke="#96714d" stroke-width="0.52" stroke-linecap="round" stroke-linejoin="round" opacity=".65" /><polyline points="378.70,656.98 378.70,760.02" fill="none" stroke="#96714d" stroke-width="0.52" stroke-linecap="round" stroke-linejoin="round" opacity=".65" /><polygon points="213.91,669.74 231.73,675.86 220.05,693.78 202.23,687.66" fill="#858781" stroke="#565b57" stroke-width="0.4" /><circle cx="213.75" cy="678.13" r="0.95" fill="#333b36" /><circle cx="221.67" cy="680.85" r="0.95" fill="#333b36" /><polygon points="374.29,635.58 392.11,641.70 380.43,659.62 362.61,653.50" fill="#858781" stroke="#565b57" stroke-width="0.4" /><circle cx="374.13" cy="643.97" r="0.95" fill="#333b36" /><circle cx="382.05" cy="646.69" r="0.95" fill="#333b36" /><polygon points="534.67,779.90 552.49,786.02 540.81,803.94 522.99,797.82" fill="#858781" stroke="#565b57" stroke-width="0.4" /><circle cx="534.51" cy="788.29" r="0.95" fill="#333b36" /><circle cx="542.43" cy="791.01" r="0.95" fill="#333b36" /><polygon points="161.82,729.86 502.38,846.82 502.38,863.38 161.82,746.42" fill="#a27451" stroke="#69513e" stroke-width="0.6" /><polygon points="502.38,846.82 511.14,841.66 511.14,858.22 502.38,863.38" fill="#7f5d44" stroke="#604b39" stroke-width="0.6" /><polygon points="170.58,724.70 511.14,841.66 511.14,858.22 170.58,741.26" fill="#b5855c" stroke="#7d5e42" stroke-width="0.6" /><polygon points="161.82,729.86 502.38,846.82 511.14,841.66 170.58,724.70" fill="#d1aa7a" stroke="#8f6e4e" stroke-width="0.65" /><polyline points="167.51,726.23 508.07,843.19" fill="none" stroke="#96714d" stroke-width="0.52" stroke-linecap="round" stroke-linejoin="round" opacity=".65" /><polyline points="165.85,727.21 506.41,844.17" fill="none" stroke="#96714d" stroke-width="0.52" stroke-linecap="round" stroke-linejoin="round" opacity=".65" /><polyline points="164.89,727.78 505.45,844.74" fill="none" stroke="#96714d" stroke-width="0.52" stroke-linecap="round" stroke-linejoin="round" opacity=".65" /><polygon points="157.13,710.53 331.37,659.97 331.37,676.53 157.13,727.09" fill="#a27451" stroke="#69513e" stroke-width="0.6" /><polygon points="331.37,659.97 341.59,653.95 341.59,670.51 331.37,676.53" fill="#7f5d44" stroke="#604b39" stroke-width="0.6" /><polygon points="167.35,704.51 341.59,653.95 341.59,670.51 167.35,721.07" fill="#b5855c" stroke="#7d5e42" stroke-width="0.6" /><polygon points="157.13,710.53 331.37,659.97 341.59,653.95 167.35,704.51" fill="#d1aa7a" stroke="#8f6e4e" stroke-width="0.65" /><polyline points="163.77,706.34 338.01,655.78" fill="none" stroke="#96714d" stroke-width="0.52" stroke-linecap="round" stroke-linejoin="round" opacity=".65" /><polyline points="161.83,707.48 336.07,656.92" fill="none" stroke="#96714d" stroke-width="0.52" stroke-linecap="round" stroke-linejoin="round" opacity=".65" /><polyline points="160.71,708.15 334.95,657.59" fill="none" stroke="#96714d" stroke-width="0.52" stroke-linecap="round" stroke-linejoin="round" opacity=".65" /><polygon points="331.37,659.97 505.61,830.21 505.61,846.77 331.37,676.53" fill="#a27451" stroke="#69513e" stroke-width="0.6" /><polygon points="505.61,830.21 515.83,824.19 515.83,840.75 505.61,846.77" fill="#7f5d44" stroke="#604b39" stroke-width="0.6" /><polygon points="341.59,653.95 515.83,824.19 515.83,840.75 341.59,670.51" fill="#b5855c" stroke="#7d5e42" stroke-width="0.6" /><polygon points="331.37,659.97 505.61,830.21 515.83,824.19 341.59,653.95" fill="#d1aa7a" stroke="#8f6e4e" stroke-width="0.65" /><polyline points="338.01,655.78 512.25,826.02" fill="none" stroke="#96714d" stroke-width="0.52" stroke-linecap="round" stroke-linejoin="round" opacity=".65" /><polyline points="336.07,656.92 510.31,827.16" fill="none" stroke="#96714d" stroke-width="0.52" stroke-linecap="round" stroke-linejoin="round" opacity=".65" /><polyline points="334.95,657.59 509.19,827.83" fill="none" stroke="#96714d" stroke-width="0.52" stroke-linecap="round" stroke-linejoin="round" opacity=".65" /><polygon points="340.94,682.41 340.94,785.45 340.94,785.45 340.94,682.41" fill="#a27451" stroke="#69513e" stroke-width="0.6" /><polygon points="340.94,785.45 332.03,782.39 332.03,782.39 340.94,785.45" fill="#7f5d44" stroke="#604b39" stroke-width="0.6" /><polygon points="332.03,679.35 332.03,782.39 332.03,782.39 332.03,679.35" fill="#b5855c" stroke="#7d5e42" stroke-width="0.6" /><polygon points="340.94,682.41 340.94,785.45 332.03,782.39 332.03,679.35" fill="#d1aa7a" stroke="#8f6e4e" stroke-width="0.65" /><polyline points="335.14,680.15 335.14,783.19" fill="none" stroke="#96714d" stroke-width="0.52" stroke-linecap="round" stroke-linejoin="round" opacity=".65" /><polyline points="336.84,680.73 336.84,783.77" fill="none" stroke="#96714d" stroke-width="0.52" stroke-linecap="round" stroke-linejoin="round" opacity=".65" /><polyline points="337.82,681.06 337.82,784.10" fill="none" stroke="#96714d" stroke-width="0.52" stroke-linecap="round" stroke-linejoin="round" opacity=".65" /><polygon points="173.03,693.82 190.85,699.94 179.17,717.86 161.35,711.74" fill="#858781" stroke="#565b57" stroke-width="0.4" /><circle cx="172.87" cy="702.21" r="0.95" fill="#333b36" /><circle cx="180.79" cy="704.93" r="0.95" fill="#333b36" /><polygon points="333.41,659.66 351.23,665.78 339.55,683.70 321.73,677.58" fill="#858781" stroke="#565b57" stroke-width="0.4" /><circle cx="333.25" cy="668.05" r="0.95" fill="#333b36" /><circle cx="341.17" cy="670.77" r="0.95" fill="#333b36" /><polygon points="493.79,803.98 511.61,810.10 499.93,828.02 482.11,821.90" fill="#858781" stroke="#565b57" stroke-width="0.4" /><circle cx="493.63" cy="812.37" r="0.95" fill="#333b36" /><circle cx="501.55" cy="815.09" r="0.95" fill="#333b36" /><polygon points="670.93,446.13 313.23,656.83 313.23,686.27 670.93,475.57" fill="#a27451" stroke="#69513e" stroke-width="0.6" /><polygon points="313.23,656.83 329.07,662.27 329.07,691.71 313.23,686.27" fill="#7f5d44" stroke="#604b39" stroke-width="0.6" /><polygon points="686.77,451.57 329.07,662.27 329.07,691.71 686.77,481.01" fill="#b5855c" stroke="#7d5e42" stroke-width="0.6" /><polygon points="670.93,446.13 313.23,656.83 329.07,662.27 686.77,451.57" fill="#d1aa7a" stroke="#8f6e4e" stroke-width="0.65" /><polyline points="681.23,449.39 323.53,660.09" fill="none" stroke="#96714d" stroke-width="0.52" stroke-linecap="round" stroke-linejoin="round" opacity=".65" /><polyline points="678.22,448.36 320.52,659.06" fill="none" stroke="#96714d" stroke-width="0.52" stroke-linecap="round" stroke-linejoin="round" opacity=".65" /><polyline points="676.47,447.76 318.77,658.46" fill="none" stroke="#96714d" stroke-width="0.52" stroke-linecap="round" stroke-linejoin="round" opacity=".65" /></g></svg>